<svg xmlns="http://www.w3.org/2000/svg" version="1.2" baseProfile="tiny-ps" viewBox="0 0 180 180">
<title>BizScan</title>
<rect width="180" height="180" fill="#050914"/>
<g transform="translate(0.000000,180.000000) scale(0.100000,-0.100000)" fill="#ffb400" stroke="none">
<path d="M730 1576 c-297 -88 -490 -347 -490 -657 0 -105 25 -207 77 -315 76
-158 263 -308 434 -349 83 -19 212 -19 297 0 81 19 223 92 237 123 9 21 12 20
67 -35 53 -53 59 -56 83 -45 40 18 32 51 -28 110 -29 29 -60 52 -68 52 -25 0
-29 11 -14 41 40 77 3 175 -82 219 -48 24 -51 28 -37 42 15 15 11 20 -45 64
-58 45 -77 74 -47 74 27 0 39 28 29 69 -14 55 -3 71 44 60 52 -12 103 -11 103
1 0 12 -86 68 -116 76 -26 7 -34 43 -34 156 0 100 -5 106 -110 122 -20 4 -63
19 -95 36 -65 32 -95 36 -127 19 -21 -11 -98 -164 -101 -200 -1 -13 -6 -18
-17 -14 -32 13 -140 18 -140 7 0 -13 34 -40 83 -67 30 -16 37 -25 37 -50 0
-58 19 -104 50 -120 37 -19 40 -19 40 2 0 13 3 14 12 5 27 -27 35 -11 15 29
-16 33 -18 45 -8 65 15 34 14 36 -11 23 -23 -12 -23 -12 -5 9 18 20 18 21 0
32 -11 7 -12 10 -3 7 32 -9 355 -120 359 -123 2 -2 -2 -10 -9 -19 -9 -11 -9
-22 -1 -46 15 -44 14 -49 -9 -49 -11 0 -20 -5 -20 -12 0 -6 -10 -33 -22 -59
-16 -33 -31 -51 -47 -55 l-25 -7 23 -9 c29 -10 61 6 61 32 0 26 4 25 56 -12
47 -34 47 -34 -5 -81 -73 -65 -90 -86 -96 -120 -10 -54 2 -103 35 -141 40 -45
79 -60 142 -54 47 5 50 4 32 -9 -31 -25 -158 -81 -205 -92 -57 -13 -201 -13
-259 0 -94 21 -206 85 -285 163 l-74 74 24 50 c73 151 226 125 318 -53 l31
-60 7 33 c4 19 19 46 34 62 23 24 25 30 14 48 -10 17 -10 23 1 37 12 14 15 14
37 -6 12 -13 23 -30 23 -38 0 -9 25 -65 55 -126 59 -117 67 -115 35 10 -22 84
-56 152 -101 200 l-28 30 29 47 c17 27 30 52 30 58 0 29 -221 155 -291 166
l-37 6 15 -66 c14 -61 14 -69 -1 -85 -9 -10 -16 -22 -16 -28 0 -6 -12 -19 -27
-29 -15 -9 -48 -37 -74 -61 -41 -38 -55 -61 -86 -142 -8 -22 -12 -17 -45 55
-44 97 -58 161 -58 264 0 100 14 166 55 256 60 131 133 212 254 284 377 221
856 -46 888 -495 10 -146 -29 -289 -114 -412 -24 -35 -43 -67 -43 -71 0 -4 9
-13 20 -20 17 -11 24 -6 59 41 159 210 183 486 65 726 -140 284 -465 433 -754
347z m369 -242 c12 -12 -8 -10 -34 2 l-30 14 30 -6 c16 -3 32 -8 34 -10z
m-204 -164 c13 -5 14 -9 5 -9 -8 0 -24 4 -35 9 -13 5 -14 9 -5 9 8 0 24 -4 35
-9z m345 -495 c55 -28 73 -94 46 -160 -30 -71 -130 -85 -189 -26 -57 56 -36
161 38 191 32 14 73 11 105 -5z m50 -255 c0 -5 -7 -7 -15 -4 -8 4 -12 10 -9
15 6 11 24 2 24 -11z"/>
</g>
</svg>
