<svg xmlns="http://www.w3.org/2000/svg" version="1.2" baseProfile="tiny-ps" viewBox="0 0 180 180">
<title>BizScan</title>
<rect width="180" height="180" fill="#050914"/>
<g transform="translate(0.000000,180.000000) scale(0.100000,-0.100000)" fill="#ffb400" stroke="none">
<path d="M0 900 l0 -900 900 0 900 0 0 900 0 900 -900 0 -900 0 0 -900z m1005
685 c258 -45 461 -237 530 -500 21 -80 21 -232 1 -320 -21 -87 -83 -217 -129
-270 -32 -36 -37 -38 -51 -25 -14 14 -12 20 20 65 86 120 124 239 124 385 0
168 -52 305 -162 425 -162 177 -396 242 -615 171 -194 -63 -354 -234 -409
-436 -23 -86 -23 -234 0 -320 57 -211 216 -378 421 -443 92 -29 244 -30 325
-3 65 22 146 61 179 87 32 25 41 24 41 -6 0 -30 -56 -69 -157 -110 -447 -179
-943 230 -874 721 42 298 255 527 538 578 103 19 115 19 218 1z m-61 -174 c35
-16 87 -32 115 -36 28 -4 54 -12 58 -18 7 -10 32 -237 28 -244 -9 -15 -435
110 -435 127 0 16 71 164 87 182 23 26 74 22 147 -11z m-289 -185 c33 -7 136
-37 230 -65 101 -31 195 -54 234 -56 67 -5 149 -43 159 -74 5 -14 -24 -13
-104 4 -27 6 -33 4 -39 -14 -3 -12 -1 -37 5 -56 13 -39 7 -55 -19 -55 -10 0
-21 -9 -24 -20 -4 -15 10 -30 60 -67 l64 -47 -23 -18 c-13 -10 -32 -18 -42
-18 -18 0 -18 1 -2 19 16 18 15 20 -21 50 -45 38 -61 39 -73 6 -7 -17 -17 -25
-32 -24 -13 1 -16 3 -8 5 17 5 60 89 60 116 0 12 7 17 23 15 17 -1 21 2 19 18
-2 11 -5 39 -5 62 -2 49 19 37 -205 114 -151 51 -191 60 -156 35 18 -14 19
-15 0 -29 -15 -11 -17 -22 -13 -58 2 -24 8 -54 12 -67 l8 -23 -36 17 c-36 17
-47 44 -47 121 0 22 -6 33 -19 38 -27 8 -101 63 -101 75 0 13 22 12 95 -4z
m127 -118 c-18 -18 -14 -62 9 -92 23 -29 11 -36 -14 -8 -33 36 -29 112 5 112
9 0 9 -3 0 -12z m-89 -129 c52 -19 167 -86 205 -118 l23 -20 -31 -50 -31 -50
40 -54 c49 -64 87 -153 95 -222 l7 -50 -23 50 c-13 28 -36 72 -51 98 -15 26
-25 52 -21 58 6 10 -42 69 -56 69 -4 0 -12 -12 -19 -27 -10 -21 -9 -29 2 -40
12 -12 10 -18 -14 -43 -16 -16 -29 -37 -29 -48 0 -38 -13 -30 -40 26 -27 58
-82 116 -127 133 -74 28 -147 -3 -188 -78 l-26 -48 5 39 c7 55 64 135 124 176
29 19 52 40 52 47 0 6 7 19 16 28 13 13 15 28 10 70 -3 29 -9 61 -13 70 -7 19
1 18 90 -16z m551 -263 c75 -31 117 -137 82 -207 -12 -24 -13 -35 -5 -45 6 -8
15 -12 19 -9 4 2 33 -22 64 -55 49 -52 56 -62 46 -80 -19 -36 -54 -25 -102 33
-24 28 -47 60 -51 70 -8 21 -16 21 -53 2 -67 -35 -162 0 -201 75 -29 54 -29
84 0 140 37 75 125 108 201 76z"/>
</g>
</svg>
